<svg id="Layer_1" enable-background="new 0 0 64 64" height="512" viewBox="0 0 64 64" width="512" xmlns="http://www.w3.org/2000/svg"><circle cx="32" cy="32" fill="#ffb56d" r="24"/><path d="m56 32c0 13.25-10.75 24-24 24-4.23 0-8.21-1.1-11.67-3.04 12.63-.69 22.67-11.16 22.67-23.96 0-9.01-4.97-16.87-12.33-20.96.44-.03.88-.04 1.33-.04 13.25 0 24 10.75 24 24z" fill="#f4a360"/><circle cx="21" cy="22" fill="#ffc48a" r="5"/><circle cx="26" cy="43" fill="#ffc48a" r="4"/><circle cx="48" cy="32" fill="#e29359" r="3"/><g fill="#ffc48a"><circle cx="37" cy="18" r="1"/><circle cx="15" cy="36" r="1"/><circle cx="32" cy="32" r="1"/></g><path d="m10 33c0 9.01 4.97 16.86 12.32 20.95-8.43-3.71-14.32-12.15-14.32-21.95 0-13.25 10.75-24 24-24 4.24 0 8.22 1.1 11.68 3.05-2.96-1.32-6.24-2.05-9.68-2.05-13.25 0-24 10.75-24 24z" fill="#fff0e2"/></svg>