<svg id="Layer_1" enable-background="new 0 0 64 64" height="512" viewBox="0 0 64 64" width="512" xmlns="http://www.w3.org/2000/svg"><circle cx="32" cy="32" fill="#ffb56d" r="24"/><path d="m56 32c0 13.25-10.75 24-24 24-4.23 0-8.21-1.1-11.67-3.04 12.63-.69 22.67-11.16 22.67-23.96 0-9.01-4.97-16.87-12.33-20.96.44-.03.88-.04 1.33-.04 13.25 0 24 10.75 24 24z" fill="#f4a360"/><path d="m33 47c-5 0-7-4-13-4-3.311 0-6.312.913-8.341 1.732 1.103 1.758 2.426 3.362 3.933 4.774 1.355-.3 2.846-.506 4.408-.506 6 0 8 4 13 4 4.239 0 5.607-2.875 15.677-3.75 1.866-1.804 3.438-3.907 4.643-6.234-14.392.271-15.502 3.984-20.32 3.984z" fill="#ffd769"/><path d="m20 13c-.99 0-1.949.062-2.87.169-3.276 2.59-5.858 6.015-7.428 9.956 2.517-1.04 6.131-2.125 10.298-2.125 8 0 9 7 16 7 6.494 0 6.971-6.021 17.384-6.892-1.336-2.617-3.133-4.959-5.291-6.912-5.57 1.999-6.931 5.804-12.093 5.804-7 0-8-7-16-7z" fill="#ffd769"/><path d="m53.31 43.02c-1.19 2.33-2.76 4.43-4.63 6.23-10.07.88-11.44 3.75-15.68 3.75-2.17 0-3.77-.75-5.38-1.61 2.8-1.07 5.34-2.66 7.52-4.65.01-.01.01-.01.01-.01 3.39-.86 6.15-3.48 18.16-3.71z" fill="#edb27e"/><path d="m33 47c.79 0 1.48-.1 2.14-.26-2.18 1.99-4.72 3.58-7.52 4.65-2.11-1.11-4.22-2.39-7.62-2.39-1.56 0-3.05.21-4.41.51-1.51-1.42-2.83-3.02-3.93-4.78 2.03-.82 5.03-1.73 8.34-1.73 6 0 8 4 13 4z" fill="#ffc48a"/><path d="m53.32 43.02c-.04.07-.08.15-.12.22.04-.07.08-.15.11-.22z" fill="#ffd769"/><path d="m53.38 21.11c-5.61.47-8.34 2.43-10.67 4.15-.36-2.33-1.06-4.55-2.04-6.6 2.13-1.29 3.97-3.22 7.42-4.46 2.16 1.95 3.96 4.29 5.29 6.91z" fill="#edb27e"/><path d="m40.67 18.66c.98 2.05 1.68 4.27 2.04 6.6-2 1.46-3.72 2.74-6.71 2.74-7 0-8-7-16-7-4.17 0-7.78 1.08-10.3 2.12 1.57-3.94 4.15-7.36 7.43-9.95.92-.11 1.88-.17 2.87-.17 8 0 9 7 16 7 1.96 0 3.37-.55 4.67-1.34z" fill="#ffc48a"/><path d="m32 35c0 1.657 1.343 3 3 3h20.244c.493-1.918.756-3.928.756-6h-21c-1.657 0-3 1.343-3 3z" fill="#ffd8b5"/><path d="m56 32c0 .37-.01.73-.03 1.09-.01.41-.04.81-.08 1.21-.01.12-.02.24-.04.36-.03.33-.08.66-.13.99-.06.4-.13.79-.21 1.18s-.17.78-.27 1.16v.01h-13.99c.77-1.89 1.3-3.9 1.55-6z" fill="#edb27e"/><path d="m35 32h7.8c-.25 2.1-.78 4.11-1.55 6h-6.25c-1.66 0-3-1.34-3-3s1.34-3 3-3z" fill="#ffc48a"/><circle cx="19" cy="32" fill="#ffc48a" r="7"/><circle cx="49" cy="28" fill="#e29359" r="1"/><circle cx="29" cy="35" fill="#ffc48a" r="1"/><circle cx="32" cy="14" fill="#ffc48a" r="1"/><path d="m10 33c0 9.01 4.97 16.86 12.32 20.95-8.43-3.71-14.32-12.15-14.32-21.95 0-13.25 10.75-24 24-24 4.24 0 8.22 1.1 11.68 3.05-2.96-1.32-6.24-2.05-9.68-2.05-13.25 0-24 10.75-24 24z" fill="#fff0e2"/></svg>